<?xml version="1.0" encoding="UTF-8"?>
<svg id="_x32_" xmlns="http://www.w3.org/2000/svg" version="1.1" viewBox="0 0 784 615.37">
  <!-- Generator: Adobe Illustrator 30.5.1, SVG Export Plug-In . SVG Version: 2.1.4 Build 3)  -->
  <path d="M781.98,87.61c-3.53-17.8-11.43-34.09-22.45-47.55-2.32-2.93-4.75-5.56-7.39-8.18-19.53-19.63-46.94-31.87-76.89-31.87H108.75c-29.95,0-57.26,12.24-76.88,31.87-2.63,2.63-5.05,5.25-7.39,8.18-11.03,13.46-18.92,29.75-22.36,47.55-1.41,6.87-2.12,13.97-2.12,21.15v397.87c0,15.26,3.24,29.94,9.01,43.19,5.35,12.65,13.25,24.09,22.86,33.69,2.43,2.43,4.85,4.66,7.49,6.88,18.81,15.58,43.1,24.99,69.39,24.99h566.5c26.31,0,50.7-9.41,69.4-25.09,2.63-2.12,5.06-4.35,7.49-6.78,9.6-9.6,17.49-21.04,22.96-33.69v-.1c5.77-13.25,8.9-27.82,8.9-43.09V108.76c0-7.18-.7-14.28-2.02-21.15ZM71.22,71.22c9.72-9.71,22.76-15.58,37.53-15.58h566.5c14.77,0,27.93,5.88,37.53,15.58,1.72,1.73,3.34,3.66,4.77,5.57l-296.92,258.77c-8.19,7.18-18.3,10.72-28.63,10.72s-20.33-3.54-28.63-10.72L66.57,76.68c1.31-1.91,2.93-3.73,4.65-5.46ZM55.64,506.63V134.25l214.87,187.45L55.75,508.95c-.11-.71-.11-1.51-.11-2.32ZM675.25,559.73H108.75c-9.62,0-18.62-2.53-26.3-6.97l226.59-197.47,21.15,18.4c17.7,15.38,39.86,23.17,61.8,23.17s44.21-7.79,61.91-23.17l21.14-18.4,226.5,197.47c-7.69,4.44-16.69,6.97-26.31,6.97ZM728.36,506.63c0,.81,0,1.61-.1,2.32l-214.76-187.14,214.86-187.46v372.28Z"/>
</svg>