<?xml version="1.0" encoding="UTF-8"?>
<svg id="Layer_1" xmlns="http://www.w3.org/2000/svg" version="1.1" viewBox="0 0 689.33 689.33">
  <!-- Generator: Adobe Illustrator 30.5.1, SVG Export Plug-In . SVG Version: 2.1.4 Build 3)  -->
  <defs>
    <style>
      .st0 {
        fill-rule: evenodd;
      }
    </style>
  </defs>
  <path class="st0" d="M344.67,532.67c103.83,0,188-84.17,188-188s-84.17-188-188-188-188,84.17-188,188,84.17,188,188,188ZM344.67,470c69.22,0,125.33-56.11,125.33-125.33s-56.11-125.33-125.33-125.33-125.33,56.11-125.33,125.33,56.11,125.33,125.33,125.33Z"/>
  <path d="M532.67,125.33c-17.31,0-31.33,14.03-31.33,31.33s14.03,31.33,31.33,31.33,31.33-14.03,31.33-31.33-14.03-31.33-31.33-31.33Z"/>
  <path class="st0" d="M20.49,102.65C0,142.87,0,195.51,0,300.8v87.73c0,105.29,0,157.94,20.49,198.15,18.02,35.38,46.78,64.14,82.16,82.16,40.22,20.49,92.86,20.49,198.15,20.49h87.73c105.29,0,157.94,0,198.15-20.49,35.38-18.02,64.14-46.78,82.16-82.16,20.49-40.21,20.49-92.86,20.49-198.15v-87.73c0-105.29,0-157.93-20.49-198.15-18.02-35.37-46.78-64.13-82.16-82.16C546.47,0,493.82,0,388.53,0h-87.73c-105.29,0-157.93,0-198.15,20.49-35.37,18.02-64.13,46.78-82.16,82.16ZM388.53,62.67h-87.73c-53.68,0-90.17.05-118.37,2.35-27.47,2.24-41.52,6.31-51.33,11.31-23.58,12.02-42.76,31.19-54.77,54.77-4.99,9.8-9.06,23.85-11.31,51.33-2.3,28.21-2.35,64.7-2.35,118.37v87.73c0,53.68.05,90.17,2.35,118.37,2.24,27.48,6.31,41.53,11.31,51.33,12.02,23.58,31.19,42.75,54.77,54.77,9.8,4.99,23.85,9.06,51.33,11.31,28.21,2.3,64.7,2.35,118.37,2.35h87.73c53.68,0,90.17-.05,118.37-2.35,27.48-2.24,41.53-6.31,51.33-11.31,23.58-12.02,42.75-31.19,54.77-54.77,4.99-9.8,9.06-23.85,11.31-51.33,2.3-28.21,2.35-64.69,2.35-118.37v-87.73c0-53.68-.05-90.17-2.35-118.37-2.24-27.47-6.31-41.52-11.31-51.33-12.02-23.58-31.19-42.76-54.77-54.77-9.8-4.99-23.85-9.06-51.33-11.31-28.21-2.3-64.69-2.35-118.37-2.35Z"/>
</svg>
