<?xml version="1.0" encoding="UTF-8"?>
<svg id="Layer_1" xmlns="http://www.w3.org/2000/svg" version="1.1" viewBox="0 0 720.1 621.4">
  <!-- Generator: Adobe Illustrator 30.5.1, SVG Export Plug-In . SVG Version: 2.1.4 Build 3)  -->
  <path d="M90.28,176.18c24.75,0,47.81,38.53,69.47,116.16,19.41,70.88,38.81,141.75,58.22,212.91,28.97,77.63,64.41,116.16,106.31,116.16,67.78,0,150.75-63.28,248.63-190.41,94.78-121.5,143.72-217.13,146.81-287.16C724.22,50.47,689.34,2.65,614.81.12c-100.13-3.09-167.91,52.87-203.34,167.91,18.28-7.59,36-11.25,53.16-11.25,36.56,0,52.59,20.53,48.37,61.31-2.25,25.03-18.28,61.03-48.37,108.28s-52.88,70.88-67.78,70.88c-19.41,0-37.12-36.56-53.16-109.69-5.34-21.38-15.19-76.22-28.97-164.53-12.94-81.56-47.25-119.81-103.22-114.47-23.91,2.25-59.34,23.62-106.59,64.69C70.31,104.18,35.44,135.4,0,166.62l33.75,43.59c32.34-22.78,51.19-34.03,56.53-34.03Z"/>
</svg>
